<?xml version="1.0" encoding="UTF-8"?>
<svg xmlns="http://www.w3.org/2000/svg" xmlns:xlink="http://www.w3.org/1999/xlink" width="30pt" height="30pt" viewBox="0 0 30 30" version="1.1">
<g id="surface1">
<path style=" stroke:none;fill-rule:nonzero;fill:rgb(0%,0%,0%);fill-opacity:1;" d="M 10.484375 7.9375 C 9.445312 8.996094 8.871094 10.410156 8.871094 11.914062 L 8.871094 18.492188 L 6.398438 20.964844 C 6.210938 21.152344 6.210938 21.457031 6.398438 21.640625 C 6.492188 21.734375 6.613281 21.78125 6.734375 21.78125 C 6.859375 21.78125 6.980469 21.734375 7.074219 21.640625 L 9.039062 19.675781 C 9.449219 20.859375 10.570312 21.707031 11.890625 21.707031 C 13.554688 21.707031 14.90625 20.351562 14.90625 18.691406 L 14.90625 11.835938 C 14.90625 11.570312 14.691406 11.355469 14.429688 11.355469 C 14.164062 11.355469 13.949219 11.570312 13.949219 11.835938 L 13.949219 18.691406 C 13.949219 19.824219 13.027344 20.75 11.890625 20.75 C 10.753906 20.75 9.828125 19.824219 9.828125 18.691406 C 9.828125 18.691406 9.828125 18.6875 9.828125 18.6875 L 9.828125 11.914062 C 9.828125 9.339844 11.894531 7.246094 14.429688 7.246094 C 16.964844 7.246094 19.027344 9.339844 19.027344 11.914062 C 19.027344 12.179688 19.242188 12.390625 19.507812 12.390625 L 22.777344 12.390625 C 22.78125 12.839844 22.785156 13.5625 22.785156 14.367188 C 22.785156 15.457031 21.898438 16.34375 20.8125 16.34375 L 19.578125 16.34375 C 19.3125 16.34375 19.097656 16.558594 19.097656 16.820312 L 19.097656 27.605469 C 19.097656 27.871094 19.3125 28.085938 19.578125 28.085938 C 19.84375 28.085938 20.054688 27.871094 20.054688 27.605469 L 20.054688 17.300781 L 20.8125 17.300781 C 22.429688 17.300781 23.742188 15.984375 23.742188 14.367188 C 23.742188 13.027344 23.730469 11.917969 23.730469 11.910156 C 23.726562 11.644531 23.515625 11.433594 23.253906 11.433594 L 19.964844 11.433594 C 19.859375 10.113281 19.304688 8.886719 18.375 7.941406 C 17.328125 6.875 15.929688 6.289062 14.429688 6.289062 C 12.929688 6.289062 11.527344 6.875 10.484375 7.9375 Z M 10.484375 7.9375 "/>
<path style=" stroke:none;fill-rule:nonzero;fill:rgb(0%,0%,0%);fill-opacity:1;" d="M 29.347656 6.910156 L 21.90625 3.296875 L 21.90625 0.480469 C 21.90625 0.214844 21.691406 0 21.425781 0 C 21.164062 0 20.949219 0.214844 20.949219 0.480469 L 20.949219 2.832031 L 15.207031 0.046875 C 15.078125 -0.015625 14.921875 -0.015625 14.792969 0.046875 L 0.652344 6.910156 C 0.417969 7.023438 0.316406 7.3125 0.433594 7.550781 C 0.546875 7.789062 0.835938 7.886719 1.070312 7.769531 L 1.667969 7.484375 L 1.667969 29.519531 C 1.667969 29.785156 1.882812 30 2.144531 30 L 27.855469 30 C 28.117188 30 28.332031 29.785156 28.332031 29.519531 L 28.332031 7.484375 L 28.929688 7.769531 C 28.996094 7.804688 29.066406 7.820312 29.136719 7.820312 C 29.3125 7.820312 29.484375 7.71875 29.566406 7.550781 C 29.683594 7.3125 29.582031 7.023438 29.347656 6.910156 Z M 27.375 29.042969 L 2.625 29.042969 L 2.625 7.015625 L 15 1.011719 L 27.375 7.015625 Z M 27.375 29.042969 "/>
</g>
</svg>
